<svg width="63" height="40" viewBox="0 0 63 40" fill="none" xmlns="http://www.w3.org/2000/svg">
<path d="M26.9988 0.445913L22.0085 5.61206C20.5144 6.03667 19.1277 6.81513 17.9558 7.88678L15.3582 10.2828C14.3621 11.2028 13.0632 11.7083 11.7253 11.7083H9.79175V24.6489C11.7839 24.7096 13.6785 25.5487 15.0945 27.0147L18.571 30.6138L19.2546 31.3215L21.8914 34.0511C22.4968 34.6779 23.4929 34.6779 24.0984 34.0511C24.2644 33.8793 24.3914 33.6771 24.4597 33.4648C24.7332 32.6863 25.3679 32.0999 26.1492 31.9179C26.9304 31.736 27.7507 31.9786 28.3171 32.5751L29.3718 33.6467C30.5046 34.8195 32.3406 34.8195 33.4636 33.6467C33.991 33.1008 34.2742 32.4032 34.3035 31.6854C34.3425 30.7957 34.8503 30.0072 35.6316 29.623C36.4128 29.2388 37.321 29.3197 38.0144 29.8353C38.9324 30.5127 40.2117 30.4217 41.032 29.5725C41.95 28.6221 41.95 27.0854 41.032 26.1452L33.6296 18.4819L30.1335 21.8182C27.4675 24.3659 23.3757 24.4063 20.6609 21.9092C17.5652 19.0582 17.4968 14.0841 20.5046 11.1422L27.3503 4.44942C30.0261 1.84108 33.5613 0.385254 37.2429 0.385254C40.7683 0.385254 44.1765 1.72987 46.8035 4.14613L49.7429 6.85557H61.3542C62.2136 6.85557 62.9167 7.58348 62.9167 8.47315V29.5017C62.9167 31.2911 61.5203 32.7368 59.7917 32.7368H56.6667C55.5144 32.7368 54.4988 32.0898 53.9617 31.1193H45.6707C45.3386 31.7966 44.8992 32.4437 44.3523 33.0098C42.6824 34.7386 40.3679 35.416 38.2 35.0419C37.8484 35.7799 37.3699 36.4674 36.7742 37.0841C34.1082 39.8441 29.9382 40.117 26.9695 37.903C24.5183 40.0058 20.866 39.8744 18.571 37.4885L15.9441 34.7588L15.2605 34.0511L11.7839 30.452C11.2468 29.896 10.5437 29.5725 9.79175 29.5118C9.79175 31.2911 8.3855 32.7368 6.66675 32.7368H3.54175C1.81323 32.7368 0.416748 31.2911 0.416748 29.5017V8.47315C0.416748 7.58348 1.11987 6.85557 1.97925 6.85557H11.7253C11.9207 6.85557 12.1062 6.7848 12.2429 6.65337L14.8308 4.26744C17.5554 1.77031 21.0613 0.385254 24.7039 0.385254H25.7097C26.1394 0.385254 26.5789 0.405473 26.9988 0.445913ZM53.5417 26.2665V11.7083H48.8542C48.2781 11.7083 47.7214 11.4859 47.3015 11.0916L43.698 7.77557C41.9207 6.13777 39.6257 5.23799 37.2429 5.23799C34.7625 5.23799 32.3796 6.21865 30.573 7.97777L23.7273 14.6705C22.7214 15.6613 22.741 17.3294 23.7761 18.2797C24.6843 19.1188 26.0613 19.0986 26.95 18.2494L33.9714 11.5364C34.9187 10.6266 36.4031 10.6872 37.282 11.678C38.1609 12.6687 38.1023 14.1953 37.1453 15.1052L37.0671 15.1861L44.3328 22.7078C45.3093 23.7188 45.9441 24.9623 46.2273 26.2564H53.5417V26.2665ZM6.66675 27.8841C6.66675 27.4551 6.50213 27.0437 6.2091 26.7403C5.91608 26.4369 5.51865 26.2665 5.10425 26.2665C4.68985 26.2665 4.29242 26.4369 3.99939 26.7403C3.70637 27.0437 3.54175 27.4551 3.54175 27.8841C3.54175 28.3131 3.70637 28.7246 3.99939 29.0279C4.29242 29.3313 4.68985 29.5017 5.10425 29.5017C5.51865 29.5017 5.91608 29.3313 6.2091 29.0279C6.50213 28.7246 6.66675 28.3131 6.66675 27.8841ZM58.2292 29.5017C58.6437 29.5017 59.0411 29.3313 59.3341 29.0279C59.6271 28.7246 59.7917 28.3131 59.7917 27.8841C59.7917 27.4551 59.6271 27.0437 59.3341 26.7403C59.0411 26.4369 58.6437 26.2665 58.2292 26.2665C57.8148 26.2665 57.4174 26.4369 57.1244 26.7403C56.8314 27.0437 56.6667 27.4551 56.6667 27.8841C56.6667 28.3131 56.8314 28.7246 57.1244 29.0279C57.4174 29.3313 57.8148 29.5017 58.2292 29.5017Z" fill="#08979C"/>
</svg>
