<svg width="45" height="49" viewBox="0 0 45 49" fill="none" xmlns="http://www.w3.org/2000/svg">
<path d="M0.508445 7.97518L0.509465 7.98284L5.17216 42.9748L5.17217 42.975C5.34768 44.2947 6.079 45.5297 7.25216 46.4364C8.4267 47.3441 9.95635 47.8533 11.5512 47.8539L0.508445 7.97518ZM0.508445 7.97518L0.507189 7.96756M0.508445 7.97518L0.507189 7.96756M0.507189 7.96756C0.502759 7.94069 0.5 7.90396 0.5 7.85388V6.35388C0.5 4.92016 1.15657 3.52789 2.35519 2.48909C3.55606 1.44833 5.1983 0.853882 6.92308 0.853882H38.0769C39.8017 0.853882 41.4439 1.44833 42.6448 2.48909C43.8434 3.52789 44.5 4.92016 44.5 6.35388V7.88847C44.4987 7.91598 44.496 7.94349 44.4918 7.97095L44.4917 7.97094M0.507189 7.96756L44.4917 7.97094M44.4917 7.97094L44.4905 7.9799M44.4917 7.97094L44.4905 7.9799M44.4905 7.9799L39.8313 42.9777C39.8313 42.9778 39.8313 42.9778 39.8313 42.9779C39.655 44.2971 38.9234 45.5313 37.7504 46.4374C36.5759 47.3446 35.0466 47.8533 33.4523 47.8539C33.4523 47.8539 33.4522 47.8539 33.4521 47.8539M44.4905 7.9799L33.4521 47.8539M29.205 27.8242L29.2041 27.8229C28.8941 27.357 28.8053 26.7917 28.9704 26.2587C29.1343 25.7295 29.5263 25.3009 30.032 25.0481C30.5369 24.7958 31.1292 24.73 31.6834 24.859C32.2377 24.9879 32.7304 25.307 33.0378 25.7689L33.0381 25.7694L33.408 26.3267L29.205 27.8242ZM29.205 27.8242L29.5781 28.3811M29.205 27.8242L29.5781 28.3811M33.4521 47.8539H11.5513H33.4521ZM29.5781 28.3811C29.5782 28.3813 29.5784 28.3815 29.5785 28.3816M29.5781 28.3811L29.5785 28.3816M29.5785 28.3816C29.6778 28.5309 29.7261 28.6936 29.7261 28.8539C29.7261 29.0144 29.6777 29.1772 29.5781 29.3267C29.478 29.4769 29.3282 29.6101 29.137 29.7058C28.9457 29.8015 28.7241 29.8539 28.4954 29.8539H25.9615C25.3912 29.8539 24.8323 30.0496 24.4102 30.4154C23.9859 30.7831 23.7308 31.2985 23.7308 31.8539C23.7308 32.4093 23.9859 32.9247 24.4102 33.2924C24.8323 33.6582 25.3912 33.8539 25.9615 33.8539H28.4954C29.4819 33.8539 30.4542 33.629 31.3152 33.1981C32.1764 32.7672 32.9006 32.1429 33.4081 31.381C33.9161 30.6184 34.1876 29.7466 34.1876 28.8539C34.1876 27.9614 33.9163 27.0899 33.4085 26.3274L29.5785 28.3816ZM41.5385 6.85388H42.0385V6.35388C42.0385 5.40065 41.6009 4.50374 40.8521 3.85472C40.1054 3.20764 39.1063 2.85388 38.0769 2.85388H6.92308C5.89368 2.85388 4.89456 3.20765 4.14794 3.85472C3.39906 4.50374 2.96154 5.40065 2.96154 6.35388V6.85388H3.46154H41.5385ZM28.9774 19.6729L28.9771 19.6725L27.4125 17.3265C26.3019 15.6611 24.3801 14.8539 22.4987 14.8539C20.6173 14.8539 18.6962 15.6611 17.5873 17.3268L16.0247 19.6697C16.0244 19.6702 16.0241 19.6706 16.0238 19.671C15.8694 19.8997 15.766 20.1566 15.7232 20.4274C15.6804 20.6988 15.7002 20.9747 15.7804 21.2378C15.8606 21.5006 15.9986 21.7424 16.1822 21.9505C16.3656 22.1583 16.5909 22.3286 16.8428 22.4547C17.0946 22.5807 17.3699 22.661 17.6529 22.6928C17.9359 22.7247 18.2235 22.7079 18.4999 22.6428C18.7764 22.5778 19.0388 22.4652 19.2712 22.309C19.5032 22.1531 19.7022 21.9559 19.8535 21.7258C19.8539 21.7252 19.8542 21.7247 19.8546 21.7241L21.4171 19.3813L21.4173 19.3811C21.5174 19.2308 21.6672 19.0977 21.8584 19.002C22.0497 18.9063 22.2713 18.8539 22.5 18.8539C22.7287 18.8539 22.9503 18.9063 23.1416 19.002C23.3328 19.0977 23.4826 19.2308 23.5827 19.3811L25.1437 21.7269C25.2961 21.9559 25.4959 22.152 25.7283 22.3067C25.9607 22.4613 26.2225 22.5727 26.4981 22.6368C26.7738 22.7009 27.0604 22.7172 27.3423 22.6852C27.6242 22.6532 27.8985 22.5731 28.1495 22.4476C28.4005 22.3222 28.6253 22.1527 28.8085 21.946C28.9919 21.7391 29.1302 21.4986 29.2112 21.2371C29.2923 20.9753 29.3134 20.7005 29.2725 20.4298C29.2315 20.1593 29.13 19.9022 28.9774 19.6729ZM11.5892 26.3256L11.5885 26.3267L16.5046 33.3539V33.8539H16.5049H19.0385C19.6088 33.8539 20.1677 33.6582 20.5898 33.2924C21.0141 32.9247 21.2692 32.4093 21.2692 31.8539C21.2692 31.2985 21.0141 30.7831 20.5898 30.4154C20.1677 30.0496 19.6088 29.8539 19.0385 29.8539H16.5046C16.2759 29.8539 16.0543 29.8015 15.863 29.7058C15.6718 29.6101 15.522 29.4769 15.4219 29.3267C15.3223 29.1772 15.2739 29.0144 15.2739 28.8539C15.2739 28.6934 15.3223 28.5305 15.4219 28.3811L15.4223 28.3804L15.7927 27.8224L15.7942 27.8201C16.0996 27.3546 16.185 26.7918 16.019 26.262C15.8542 25.736 15.4638 25.3101 14.9607 25.0583C14.4585 24.807 13.8695 24.7405 13.3175 24.867C12.7655 24.9934 12.2737 25.3084 11.9643 25.7657L11.9631 25.7676L11.5892 26.3256Z" fill="#B7EB8F" stroke="black"/>
</svg>
