<svg width="46" height="43" viewBox="0 0 46 43" fill="none" xmlns="http://www.w3.org/2000/svg">
<path d="M10.1667 38.0205V38.2705H10.4167H35.4167H35.6667V38.0205V33.8538V33.6038H35.4167H10.4167H10.1667V33.8538V38.0205ZM10.1667 29.6872V29.9372H10.4167H35.4167H35.6667V29.6872V25.5205V25.2705H35.4167H10.4167H10.1667V25.5205V29.6872ZM10.1667 21.3538V21.6038H10.4167H35.4167H35.6667V21.3538V19.4788V19.3547L35.5678 19.2797L32.5469 16.988L32.4799 16.9372H32.3958H13.4375H13.3534L13.2864 16.988L10.2656 19.2797L10.1667 19.3547V19.4788V21.3538ZM18.7034 12.8211L18.1092 13.2705H18.8542H26.9792H27.7241L27.13 12.8211L23.0675 9.74821L22.9167 9.63413L22.7659 9.74821L18.7034 12.8211ZM39.3333 22.6559V41.9372H6.5V22.6559V22.1504L6.09824 22.4573L2.54867 25.1687L0.348421 22.2351L6.40211 17.5939L6.5 17.5189V17.3955V11.1872H10.1667V14.2184V14.7234L10.5683 14.4172L22.9166 5.00165L45.4831 22.2343L43.2848 25.1196L39.7333 22.4559L39.3333 22.1559V22.6559ZM6.50441 8.60384C6.55998 7.04193 7.14054 5.71268 8.24969 4.60353C9.41755 3.43567 10.8294 2.85384 12.5 2.85384C13.1534 2.85384 13.7131 2.62973 14.1622 2.18062C14.5527 1.79009 14.7727 1.31634 14.8224 0.770508H18.4956C18.44 2.33242 17.8595 3.66167 16.7503 4.77081C15.5824 5.93868 14.1706 6.52051 12.5 6.52051C11.8466 6.52051 11.2869 6.74462 10.8378 7.19373C10.4473 7.58426 10.2273 8.05801 10.1776 8.60384H6.50441Z" fill="#B7EB8F" stroke="black" stroke-width="0.5"/>
</svg>
