<svg width="50" height="50" viewBox="0 0 50 50" fill="none" xmlns="http://www.w3.org/2000/svg">
<path d="M10.375 23.7914H16.9292C17.7619 23.7915 18.5755 23.542 19.2651 23.0753C19.9547 22.6085 20.4886 21.9458 20.7979 21.1727L23.9167 13.3748H25.1458C26.396 13.3744 27.6046 13.8238 28.5509 14.6408C29.4971 15.4578 30.118 16.5879 30.3 17.8248L32.25 31.0831V49.8331M23.9167 31.0831V49.8331V31.0831ZM1 0.874756L24.9583 24.8331L48.9167 48.7914M25.2708 9.20809C25.2708 9.20809 28.6042 7.12476 28.6042 4.52059C28.6042 3.55365 28.2201 2.62632 27.5363 1.9426C26.8526 1.25887 25.9253 0.874756 24.9583 0.874756C22.9458 0.874756 21.3208 2.50809 21.3208 4.52059C21.3208 7.12476 24.6458 9.20809 24.6458 9.20809H25.2708ZM9.85417 35.7706C10.5448 35.7706 11.2072 35.4962 11.6956 35.0078C12.184 34.5195 12.4583 33.8571 12.4583 33.1664C12.4583 32.4758 12.184 31.8134 11.6956 31.325C11.2072 30.8366 10.5448 30.5623 9.85417 30.5623C9.1635 30.5623 8.50112 30.8366 8.01274 31.325C7.52437 31.8134 7.25 32.4758 7.25 33.1664C7.25 33.8571 7.52437 34.5195 8.01274 35.0078C8.50112 35.4962 9.1635 35.7706 9.85417 35.7706ZM6.46875 46.7081C7.36662 46.7081 8.22771 46.3514 8.8626 45.7165C9.49749 45.0816 9.85417 44.2205 9.85417 43.3227C9.85417 42.4248 9.49749 41.5637 8.8626 40.9288C8.22771 40.2939 7.36662 39.9373 6.46875 39.9373C5.57088 39.9373 4.70979 40.2939 4.0749 40.9288C3.44001 41.5637 3.08333 42.4248 3.08333 43.3227C3.08333 44.2205 3.44001 45.0816 4.0749 45.7165C4.70979 46.3514 5.57088 46.7081 6.46875 46.7081Z" fill="#B7EB8F"/>
<path d="M10.375 23.7914H16.9292C17.7619 23.7915 18.5755 23.542 19.2651 23.0753C19.9547 22.6085 20.4886 21.9458 20.7979 21.1727L23.9167 13.3748H25.1458C26.396 13.3744 27.6046 13.8238 28.5509 14.6408C29.4971 15.4578 30.118 16.5879 30.3 17.8248L32.25 31.0831V49.8331M23.9167 31.0831V49.8331M1 0.874756L24.9583 24.8331L48.9167 48.7914M25.2708 9.20809C25.2708 9.20809 28.6042 7.12476 28.6042 4.52059C28.6042 3.55365 28.2201 2.62632 27.5363 1.9426C26.8526 1.25887 25.9253 0.874756 24.9583 0.874756C22.9458 0.874756 21.3208 2.50809 21.3208 4.52059C21.3208 7.12476 24.6458 9.20809 24.6458 9.20809H25.2708ZM9.85417 35.7706C10.5448 35.7706 11.2072 35.4962 11.6956 35.0078C12.184 34.5195 12.4583 33.8571 12.4583 33.1664C12.4583 32.4758 12.184 31.8134 11.6956 31.325C11.2072 30.8366 10.5448 30.5623 9.85417 30.5623C9.1635 30.5623 8.50112 30.8366 8.01274 31.325C7.52437 31.8134 7.25 32.4758 7.25 33.1664C7.25 33.8571 7.52437 34.5195 8.01274 35.0078C8.50112 35.4962 9.1635 35.7706 9.85417 35.7706ZM6.46875 46.7081C7.36662 46.7081 8.22771 46.3514 8.8626 45.7165C9.49749 45.0816 9.85417 44.2205 9.85417 43.3227C9.85417 42.4248 9.49749 41.5637 8.8626 40.9288C8.22771 40.2939 7.36662 39.9373 6.46875 39.9373C5.57088 39.9373 4.70979 40.2939 4.0749 40.9288C3.44001 41.5637 3.08333 42.4248 3.08333 43.3227C3.08333 44.2205 3.44001 45.0816 4.0749 45.7165C4.70979 46.3514 5.57088 46.7081 6.46875 46.7081Z" stroke="black"/>
</svg>
