<svg width="38" height="45" viewBox="0 0 38 45" fill="none" xmlns="http://www.w3.org/2000/svg">
<path d="M35.0713 16.8228C35.0713 24.2928 18.9999 42.3228 18.9999 42.3228C18.9999 42.3228 2.92847 24.2928 2.92847 16.8228C2.92847 13.2423 4.6217 9.80855 7.63568 7.27681C10.6497 4.74507 14.7375 3.32275 18.9999 3.32275C23.2623 3.32275 27.3501 4.74507 30.3641 7.27681C33.3781 9.80855 35.0713 13.2423 35.0713 16.8228Z" stroke="#08979C" stroke-width="5" stroke-linecap="round" stroke-linejoin="round"/>
<path d="M19 21.3228C21.9586 21.3228 24.3571 19.308 24.3571 16.8228C24.3571 14.3375 21.9586 12.3228 19 12.3228C16.0413 12.3228 13.6428 14.3375 13.6428 16.8228C13.6428 19.308 16.0413 21.3228 19 21.3228Z" stroke="#08979C" stroke-width="5" stroke-linecap="round" stroke-linejoin="round"/>
</svg>
