<svg width="47" height="40" viewBox="0 0 47 40" fill="none" xmlns="http://www.w3.org/2000/svg">
<path d="M8.34302 0.322879C8.26489 0.322879 8.177 0.333385 8.09888 0.345993C5.07251 0.903884 2.03638 8.12916 1.02856 10.7453H23.177L24.3391 8.23422C23.1282 6.13294 20.8918 2.94318 18.6458 3.07767C17.1711 3.16172 14.3489 6.64775 14.3489 6.64775C14.3489 6.64775 10.8918 0.290309 8.34302 0.322879ZM27.3958 5.9123L24.2708 12.6364H16.4875L12.5129 22.6175C14.6614 22.9642 16.5559 24.162 17.884 25.8745H26.4387C26.9075 25.2651 27.4446 24.7293 28.0403 24.267L30.8333 10.7453H35.6086L37.2004 5.9123H27.3958ZM0.384033 12.6364V21.0416L1.70923 21.4093L5.20532 12.6364H0.384033ZM7.11353 12.6364L3.42505 21.8926L5.92114 22.5965L9.88599 12.6364H7.11353ZM11.8 12.6364L7.63794 23.0798L7.99927 23.1849C8.82153 22.8277 9.71021 22.5965 10.6379 22.5335L14.5735 12.6364H11.8ZM32.2395 12.6364L30.0813 23.0903C31.0188 22.7226 32.0442 22.5125 33.0989 22.5125C37.0344 22.5125 40.384 25.3597 41.4387 29.2366H46.2825V20.7789L41.7415 19.1504L40.2278 12.6364H36.8391H32.2395ZM33.9778 14.1073H38.47L39.6907 19.3605H32.7571L33.8118 14.8218L33.9778 14.1073ZM11.2239 24.4036C7.38403 24.4036 4.29028 27.7342 4.29028 31.8632C4.29028 35.9922 7.38403 39.3228 11.2239 39.3228C15.0618 39.3228 18.1575 35.9922 18.1575 31.8632C18.1575 27.7342 15.0618 24.4036 11.2239 24.4036ZM33.0989 24.4036C29.261 24.4036 26.1653 27.7342 26.1653 31.8632C26.1653 35.9922 29.261 39.3228 33.0989 39.3228C36.9368 39.3228 40.0325 35.9922 40.0325 31.8632C40.0325 27.7342 36.9368 24.4036 33.0989 24.4036ZM1.78833 27.7657L0.577393 34.2797H2.82837C2.63599 33.5127 2.53247 32.6932 2.53247 31.8632C2.53247 30.3923 2.84985 29.0054 3.41528 27.7657H1.78833ZM19.0364 27.7657C19.593 29.0054 19.9153 30.3923 19.9153 31.8632C19.9153 32.6932 19.8079 33.5127 19.6223 34.2797H24.7004C24.5149 33.5127 24.4075 32.6932 24.4075 31.8632C24.4075 30.3923 24.7297 29.0054 25.2864 27.7657H19.0364ZM11.2239 28.5011C12.0527 28.5011 12.8475 28.8553 13.4336 29.4859C14.0196 30.1164 14.3489 30.9715 14.3489 31.8632C14.3489 32.7549 14.0196 33.61 13.4336 34.2405C12.8475 34.871 12.0527 35.2252 11.2239 35.2252C10.3951 35.2252 9.60022 34.871 9.01417 34.2405C8.42812 33.61 8.09888 32.7549 8.09888 31.8632C8.09888 30.9715 8.42812 30.1164 9.01417 29.4859C9.60022 28.8553 10.3951 28.5011 11.2239 28.5011ZM33.0989 28.5011C33.9277 28.5011 34.7225 28.8553 35.3086 29.4859C35.8946 30.1164 36.2239 30.9715 36.2239 31.8632C36.2239 32.7549 35.8946 33.61 35.3086 34.2405C34.7225 34.871 33.9277 35.2252 33.0989 35.2252C32.2701 35.2252 31.4752 34.871 30.8892 34.2405C30.3031 33.61 29.9739 32.7549 29.9739 31.8632C29.9739 30.9715 30.3031 30.1164 30.8892 29.4859C31.4752 28.8553 32.2701 28.5011 33.0989 28.5011ZM41.761 31.1277C41.7805 31.3694 41.7903 31.611 41.7903 31.8632C41.7903 32.9874 41.6047 34.059 41.2629 35.0676L46.2825 32.9033V31.1277H41.761Z" fill="#08979C"/>
</svg>
