<svg width="41" height="40" viewBox="0 0 41 40" fill="none" xmlns="http://www.w3.org/2000/svg">
<path d="M28.6221 0.385254H12.0444L0.333252 11.8036V27.9669L12.0444 39.3853H28.6221L40.3333 27.9669V11.8036L28.6221 0.385254ZM35.8888 26.1686L26.7777 35.0519H13.8888L4.7777 26.1686V13.6019L13.8888 4.71859H26.7777L35.8888 13.6019V26.1686Z" fill="#08979C"/>
<path d="M19.0833 29.5519C20.2339 29.5519 21.1667 28.6192 21.1667 27.4686C21.1667 26.318 20.2339 25.3853 19.0833 25.3853C17.9327 25.3853 17 26.318 17 27.4686C17 28.6192 17.9327 29.5519 19.0833 29.5519Z" fill="#08979C"/>
<path d="M17 8.71875H21.1667V23.3021H17V8.71875Z" fill="#08979C"/>
</svg>
