<svg width="52" height="52" viewBox="0 0 52 52" fill="none" xmlns="http://www.w3.org/2000/svg">
<path d="M40.5833 15.8853C40.5833 15.8853 30.1666 30.4686 14.5416 30.4686M14.5416 30.4686C10.3749 30.4686 3.08325 32.5519 3.08325 40.8853V49.2186H25.9999V40.8853C25.9999 35.6769 32.2499 38.8019 40.5833 24.2186L37.4583 21.0936M14.5416 30.4686C16.4755 30.4686 18.3301 29.7004 19.6976 28.3329C21.065 26.9655 21.8333 25.1108 21.8333 23.1769C21.8333 21.243 21.065 19.3884 19.6976 18.0209C18.3301 16.6535 16.4755 15.8853 14.5416 15.8853C12.6077 15.8853 10.7531 16.6535 9.3856 18.0209C8.01815 19.3884 7.24992 21.243 7.24992 23.1769C7.24992 25.1108 8.01815 26.9655 9.3856 28.3329C10.7531 29.7004 12.6077 30.4686 14.5416 30.4686ZM7.24992 11.7186V5.46859H48.9166V34.6353H42.6666M23.9166 3.38525H32.2499V7.55192H23.9166V3.38525Z" stroke="#08979C" stroke-width="5"/>
</svg>
